HIERARCHY
ROOT root
{
	OFFSET	0	13.1	24.9
	CHANNELS 6  Xposition Yposition Zposition Xrotation Yrotation Zrotation
	JOINT spine_1
	{
		OFFSET	0	9.99999	0
		CHANNELS 3  Xrotation Yrotation Zrotation
		JOINT spine_2
		{
			OFFSET	0	112	-10
			CHANNELS 3  Xrotation Yrotation Zrotation
			JOINT spine_3
			{
				OFFSET	0	206.5	19.3
				CHANNELS 3  Xrotation Yrotation Zrotation
				JOINT spine_4
				{
					OFFSET	0	110.4	14.6
					CHANNELS 3  Xrotation Yrotation Zrotation
					JOINT neck_1
					{
						OFFSET	0	71.8	-50.3
						CHANNELS 3  Xrotation Yrotation Zrotation
						JOINT neck_2
						{
							OFFSET	0	86.2	-25.8
							CHANNELS 3  Xrotation Yrotation Zrotation
							JOINT head_ee
							{
								OFFSET	0	179.8	-8.7
								CHANNELS 3  Xrotation Yrotation Zrotation
								End Site
								{
									OFFSET	1	0	0
								}
							}
						}
					}
					JOINT left_clavicle
					{
						OFFSET	-43.2	22.4	-70.8
						CHANNELS 3  Xrotation Yrotation Zrotation
						JOINT left_shoulder
						{
							OFFSET	-93.9	-5.79999	48.7
							CHANNELS 3  Xrotation Yrotation Zrotation
							JOINT left_elbow
							{
								OFFSET	-291.4	-30.8	15.2
								CHANNELS 3  Xrotation Yrotation Zrotation
								JOINT left_lowarm_twist
								{
									OFFSET	-110.7	-3.89999	13.6
									CHANNELS 3  Xrotation Yrotation Zrotation
									JOINT left_hand
									{
										OFFSET	-110.7	-3.89999	13.6
										CHANNELS 3  Xrotation Yrotation Zrotation
										JOINT left_ee
										{
											OFFSET	-80.8	-5.10001	12.1
											CHANNELS 3  Xrotation Yrotation Zrotation
											End Site
											{
												OFFSET	1	0	0
											}
										}
									}
								}
							}
						}
					}
					JOINT right_clavicle
					{
						OFFSET	43.2	22.4	-70.8
						CHANNELS 3  Xrotation Yrotation Zrotation
						JOINT right_shoulder
						{
							OFFSET	93.9	-5.79999	48.7
							CHANNELS 3  Xrotation Yrotation Zrotation
							JOINT right_elbow
							{
								OFFSET	291.4	-30.8	15.2
								CHANNELS 3  Xrotation Yrotation Zrotation
								JOINT right_lowarm_twist
								{
									OFFSET	110.7	-3.89999	13.6
									CHANNELS 3  Xrotation Yrotation Zrotation
									JOINT right_hand
									{
										OFFSET	110.7	-3.89999	13.6
										CHANNELS 3  Xrotation Yrotation Zrotation
										JOINT right_ee
										{
											OFFSET	80.8	-5.10001	12.1
											CHANNELS 3  Xrotation Yrotation Zrotation
											End Site
											{
												OFFSET	1	0	0
											}
										}
									}
								}
							}
						}
					}
				}
			}
		}
	}
	JOINT left_hip
	{
		OFFSET	-82.8	-127.5	0.300001
		CHANNELS 3  Xrotation Yrotation Zrotation
		JOINT left_knee
		{
			OFFSET	-28.2	-396.7	2.2
			CHANNELS 3  Xrotation Yrotation Zrotation
			JOINT left_ankle
			{
				OFFSET	-11.7	-411.3	35.4
				CHANNELS 3  Xrotation Yrotation Zrotation
				JOINT left_toes
				{
					OFFSET	0	-60	-88.6
					CHANNELS 3  Xrotation Yrotation Zrotation
					JOINT left_foot_ee
					{
						OFFSET	-22.5	-16.5	-42.2
						CHANNELS 3  Xrotation Yrotation Zrotation
						End Site
						{
							OFFSET	1	0	0
						}
					}
				}
			}
		}
	}
	JOINT right_hip
	{
		OFFSET	82.8	-127.5	0.300001
		CHANNELS 3  Xrotation Yrotation Zrotation
		JOINT right_knee
		{
			OFFSET	28.2	-396.7	2.2
			CHANNELS 3  Xrotation Yrotation Zrotation
			JOINT right_ankle
			{
				OFFSET	11.7	-411.3	35.4
				CHANNELS 3  Xrotation Yrotation Zrotation
				JOINT right_toes
				{
					OFFSET	0	-60	-88.6
					CHANNELS 3  Xrotation Yrotation Zrotation
					JOINT right_foot_ee
					{
						OFFSET	22.5	-16.5	-42.2
						CHANNELS 3  Xrotation Yrotation Zrotation
						End Site
						{
							OFFSET	1	0	0
						}
					}
				}
			}
		}
	}
}
MOTION
Frames: 13
Frame Time: 0.02
1626.63 730.508 -1257.41 -6.05407 47.5003 8.57555 1.74402 0.035331 -0.962687 1.74453 0.0965149 -0.958488 1.74289 0.267817 -0.925362 1.74172 0.11832 -0.956042 0.716613 17.3815 -1.78245 1.69454 32.3641 -0.499521 -0.0 0.0 -0.0 -2.547 23.8425 -0.702685 -21.1557 -35.4607 69.9652 0.493348 -13.7335 0.0594117 -17.0492 -0.902021 1.97662 0.959753 -2.31306 5.47362 -0.0 0.0 -0.0 12.7123 22.6667 -25.36 0.354529 25.7875 -56.8985 1.27533 32.2816 -0.369103 8.20665 -0.216037 1.02516 -0.0964356 -13.9911 -5.13752 0.0 0.0 0.0 27.7165 -13.1874 -7.74896 -54.3607 -1.62279 7.87558 38.5141 15.2492 -4.80064 23.9588 -0.0 -0.0 -0.0 0.0 -0.0 18.9527 7.57089 -12.4851 -25.2299 -0.197024 -3.83556 26.226 -2.02147 3.48223 -9.31074 0.0 0.0 0.0 0.0 0.0 
1607.51 732.116 -1267.13 -5.86583 46.5928 9.13028 1.8927 -0.0677579 -0.96827 1.89322 -0.00601005 -0.970619 1.8933 0.166639 -0.956228 1.89203 0.013537 -0.970543 0.682723 17.3093 -2.15618 1.68278 32.5442 -0.911346 -0.0 0.0 -0.0 -2.7628 23.8552 -0.99419 -22.5594 -34.5241 70.8442 0.454564 -12.6903 0.0505472 -16.2053 -0.843773 1.88563 0.973618 -1.01783 6.10054 -0.0 0.0 -0.0 12.7569 22.2062 -25.5047 1.92456 26.4138 -57.2089 1.35204 33.8108 -0.410937 8.24958 -0.216778 1.03059 -0.331635 -12.4171 -3.01809 0.0 0.0 0.0 31.8548 -12.4742 -8.91233 -55.7067 -1.75465 8.03573 39.0504 15.6172 -4.85584 23.6586 -0.0 -0.0 -0.0 0.0 -0.0 17.9221 6.50065 -13.114 -25.1396 -0.199341 -3.8219 25.9323 -3.27824 3.44363 -8.84057 0.0 0.0 0.0 0.0 0.0 
1590.2 731.054 -1277.0 -5.08344 45.4065 8.79129 2.01287 0.0550867 -0.965378 2.01338 0.116402 -0.959917 2.01137 0.283309 -0.924517 2.0102 0.13375 -0.957654 -0.15729 17.4404 -1.73376 0.727689 32.6002 -0.20246 -0.0 0.0 -0.0 -3.30883 24.3633 -1.63324 -25.4259 -35.7691 70.2877 0.434742 -12.1537 0.0462832 -15.8254 -0.817986 1.84439 1.32157 -2.05741 8.02494 -0.0 0.0 -0.0 12.9477 21.0206 -26.0469 2.65936 27.0552 -57.0736 1.55781 37.6544 -0.531177 9.10205 -0.230667 1.1386 0.0801654 -8.98886 -4.24931 0.0 0.0 0.0 34.0079 -13.9093 -10.9514 -53.3807 -1.52918 7.75707 38.7285 14.917 -4.81566 23.7748 -0.0 -0.0 -0.0 0.0 -0.0 15.5774 6.82001 -12.9606 -25.9638 -0.177383 -3.94647 29.5559 -1.7634 3.8518 -7.30286 0.0 0.0 0.0 0.0 0.0 
1567.75 727.555 -1287.27 -4.42659 45.3489 8.64905 2.04175 0.0823445 -1.2045 2.04255 0.158818 -1.19682 2.03912 0.36617 -1.15045 2.03732 0.179896 -1.19383 -0.745423 16.9883 -2.76593 0.110676 32.7128 -1.20213 -0.0 0.0 -0.0 -3.4011 24.4631 -1.73677 -27.1184 -35.6181 70.6598 0.417218 -11.6776 0.0426649 -15.5897 -0.802135 1.81873 1.47441 -2.31864 8.95526 -0.0 0.0 -0.0 12.8815 19.7949 -25.9843 3.76496 27.0967 -56.8225 1.66376 39.4913 -0.597243 9.32131 -0.233979 1.16641 0.0818937 -6.70576 -3.3308 0.0 0.0 0.0 35.2297 -14.218 -11.7323 -52.9028 -1.48426 7.6987 39.7094 16.6982 -4.9342 23.94 -0.0 -0.0 -0.0 0.0 -0.0 13.2751 7.04403 -13.1356 -25.8514 -0.180484 -3.9295 31.1116 -1.73239 4.01688 -6.46801 0.0 0.0 0.0 0.0 0.0 
1545.25 724.174 -1296.68 -4.62116 45.4453 8.83544 2.17303 0.0748355 -1.04751 2.17363 0.141336 -1.04062 2.17097 0.319263 -1.00048 2.1696 0.157258 -1.03834 0.764098 17.0283 -3.16745 1.83835 32.8453 -2.08102 -0.0 0.0 -0.0 -3.63892 24.1014 -2.13636 -29.0827 -34.8128 70.9169 0.433826 -12.1289 0.0460906 -15.5097 -0.796771 1.81 1.30621 -1.75268 8.04581 -0.0 0.0 -0.0 12.8903 19.1549 -26.0478 5.75957 27.7533 -57.1143 1.62931 38.9044 -0.575472 8.32884 -0.218138 1.04063 0.488899 -5.13169 -5.36225 0.0 0.0 0.0 37.22 -18.1441 -11.9149 -51.4791 -1.35342 7.5227 40.6313 17.0014 -5.02295 23.963 -0.0 -0.0 -0.0 0.0 -0.0 11.8705 7.70427 -12.6943 -26.0507 -0.174962 -3.95959 31.6631 -1.4727 4.07562 -6.38304 0.0 0.0 0.0 0.0 0.0 
1530.46 718.355 -1302.91 -4.82023 45.8697 9.44165 2.2795 0.101252 -1.15761 2.28022 0.174704 -1.14883 2.27658 0.368832 -1.10195 2.27493 0.190182 -1.14637 -1.2267 17.51 -2.02073 -0.436303 33.1512 -0.205221 -0.0 0.0 -0.0 -3.86014 24.6683 -2.30989 -29.6111 -35.2926 70.9717 0.390254 -10.9417 0.0373768 -15.2236 -0.777711 1.77873 1.62185 -2.71082 9.79798 -0.0 0.0 -0.0 13.1092 18.7506 -26.5832 5.07179 27.4523 -56.0454 1.90156 43.2841 -0.754554 9.68904 -0.239295 1.21308 0.288016 -3.70594 -3.45632 0.0 0.0 0.0 38.4573 -16.0186 -13.3535 -50.7956 -1.29216 7.43706 39.1997 14.3324 -4.85067 24.1243 -0.0 -0.0 -0.0 0.0 -0.0 10.8163 7.41826 -12.7497 -26.5366 -0.161064 -4.03287 34.0592 -1.45627 4.31783 -5.24806 0.0 0.0 0.0 0.0 0.0 
1503.09 710.978 -1310.28 -5.81825 46.8076 10.5645 2.82941 0.0312619 -1.35624 2.83042 0.117492 -1.3515 2.82734 0.334547 -1.31471 2.82495 0.122735 -1.35104 -0.824427 15.5749 -2.90568 -0.0992196 30.2893 -1.44873 -0.0 0.0 -0.0 -4.11214 25.0645 -2.55653 -31.111 -33.9768 71.506 0.406126 -11.3753 0.0404484 -14.6436 -0.739548 1.71505 1.43135 -1.85156 8.85412 -0.0 0.0 -0.0 12.8422 18.0525 -26.0024 6.90727 27.7769 -56.6937 1.75039 40.9247 -0.653176 9.48115 -0.236326 1.18669 0.351546 -2.87282 -3.53524 0.0 0.0 0.0 40.1519 -15.5817 -11.5231 -46.6725 -0.944871 6.90584 42.3796 21.1581 -5.27258 25.5144 -0.0 -0.0 -0.0 0.0 -0.0 8.50231 10.8666 -13.2501 -21.5253 -0.274395 -3.27243 36.1177 -0.570185 4.52188 -5.11966 0.0 0.0 0.0 0.0 0.0 
1494.98 707.405 -1315.18 -6.55118 46.061 11.49 2.83805 0.240154 -1.38621 2.83906 0.327867 -1.36812 2.83088 0.544813 -1.2971 2.82869 0.333144 -1.36685 -1.3007 16.909 -2.50486 -0.538079 32.4563 -0.762828 -0.0 0.0 -0.0 -4.61408 24.6994 -3.31814 -31.1421 -34.6685 72.3771 0.479672 -13.3667 0.0562075 -14.7988 -0.749694 1.73212 1.73175 -2.8238 10.502 -0.0 0.0 -0.0 12.88 18.2567 -26.0787 6.89243 28.3309 -55.8897 1.93631 43.802 -0.778493 9.86612 -0.241747 1.23557 0.41022 -2.566 -3.79885 0.0 0.0 0.0 38.725 -17.6169 -13.3764 -38.5042 -0.37436 5.78775 37.5578 14.9081 -4.706 23.2852 -0.0 -0.0 -0.0 0.0 -0.0 8.79432 8.06875 -12.887 -22.5607 -0.256441 -3.4303 35.0974 1.81306 4.44437 -4.81976 0.0 0.0 0.0 0.0 0.0 
1470.42 702.693 -1321.8 -7.06133 47.1933 11.6727 3.02784 0.0649486 -1.28691 3.02875 0.1467 -1.28017 3.02514 0.347551 -1.2408 3.02302 0.147246 -1.28011 -1.3858 15.3982 -3.97941 -0.64959 30.8952 -2.48038 -0.0 0.0 -0.0 -3.72155 24.7905 -2.09661 -32.7906 -33.4044 70.8269 0.42627 -11.9237 0.0445161 -15.343 -0.785643 1.79178 1.23165 1.48731 8.85357 -0.0 0.0 -0.0 12.7124 18.2038 -25.6925 7.52281 28.0653 -56.3979 1.88588 43.0475 -0.743829 9.29896 -0.233646 1.16358 0.116442 -4.3278 -2.57955 0.0 0.0 0.0 34.4039 -21.0215 -13.424 -21.6012 0.273176 3.28401 36.9387 20.1718 -4.73948 22.6218 -0.0 -0.0 -0.0 0.0 -0.0 8.90264 22.103 -14.1827 -19.5668 -0.300542 -2.97307 38.907 0.547815 4.78497 -3.87638 0.0 0.0 0.0 0.0 0.0 
1453.94 701.715 -1326.16 -8.03073 47.7825 12.6004 3.24273 -0.00475449 -1.15198 3.24346 0.0685538 -1.14995 3.2418 0.245495 -1.12553 3.24003 0.0646692 -1.15018 -3.12497 14.3068 -5.69432 -2.52706 30.4237 -3.94675 -0.0 0.0 -0.0 -3.76107 23.8238 -2.36416 -31.9797 -32.3572 71.8499 0.379357 -10.6432 0.0353364 -13.7749 -0.6836 1.61896 1.53348 0.415897 10.4661 -0.0 0.0 -0.0 12.4864 17.4564 -25.2101 7.9741 27.3316 -57.4942 1.87977 42.9547 -0.739657 7.16885 -0.196864 0.893979 0.00468845 -3.88163 -1.65762 0.0 0.0 0.0 33.4966 -19.1957 -13.8401 -10.7687 0.29144 1.62452 31.7938 21.4479 -4.22979 21.4687 -0.0 -0.0 -0.0 0.0 -0.0 7.05346 23.3006 -14.5206 -15.1227 -0.321839 -2.29171 38.7728 -3.67561 4.75147 -5.06667 0.0 0.0 0.0 0.0 0.0 
1431.58 695.797 -1331.79 -9.11129 48.2971 13.2207 3.4818 -0.191324 -1.09136 3.48245 -0.121494 -1.10132 3.4845 0.0454863 -1.10706 3.48282 -0.129914 -1.10036 -2.47716 14.3151 -3.18034 -1.98583 28.4453 -1.44367 -0.0 0.0 -0.0 -4.3224 23.2678 -3.26708 -31.0106 -31.5029 73.3005 0.425977 -11.9158 0.0444556 -12.5154 -0.6051 1.4782 2.48294 0.486394 17.028 -0.0 0.0 -0.0 12.2946 17.6273 -24.7589 7.42738 27.4934 -57.5748 1.97151 44.3177 -0.802971 6.11939 -0.175061 0.761694 0.77095 0.0991915 -5.11505 0.0 0.0 0.0 31.2947 -19.215 -15.1294 -2.49735 0.0947395 0.371521 32.1761 17.4333 -4.20051 22.3155 -0.0 -0.0 -0.0 0.0 -0.0 7.10299 33.5604 -14.2838 -12.2995 -0.307906 -1.85881 40.1319 -1.66834 4.87712 -0.40202 0.0 0.0 0.0 0.0 0.0 
1407.07 692.764 -1336.37 -9.68765 48.0795 13.7477 3.65555 -0.254525 -1.20737 3.65635 -0.177187 -1.22112 3.65975 0.00465599 -1.23389 3.65767 -0.190258 -1.21915 -2.24162 13.7292 -3.26445 -1.76026 27.4194 -1.66224 -0.0 0.0 -0.0 -4.15411 22.442 -3.22537 -31.1014 -30.8131 74.0738 0.467878 -13.0494 0.0535127 -11.9037 -0.568104 1.40923 3.0587 1.88767 21.6534 -0.0 0.0 -0.0 11.7133 17.0508 -23.4562 7.02498 26.9142 -59.2452 1.99902 44.7145 -0.822264 4.11638 -0.126738 0.510403 1.03392 0.94974 -6.53471 0.0 0.0 0.0 29.735 -19.9427 -16.803 2.56641 -0.11416 -0.377221 32.1927 14.4361 -4.16379 23.3048 -0.0 -0.0 -0.0 0.0 -0.0 5.43945 40.6286 -13.8974 -9.31323 -0.269983 -1.40222 40.4943 -5.20288 4.90037 1.89422 -0.0 -0.0 0.0 0.0 0.0 
1381.36 691.146 -1347.16 -9.59435 47.7717 14.3857 3.76875 -0.363741 -1.27646 3.76961 -0.281787 -1.29702 3.77556 -0.0903241 -1.32419 3.77324 -0.298304 -1.29332 -3.2345 13.2846 -2.9983 -2.87347 26.5121 -1.19774 -0.0 0.0 -0.0 -3.83487 23.0275 -2.64337 -30.6672 -30.1119 74.0389 0.406541 -11.3866 0.0405305 -12.0029 -0.574053 1.42044 2.77243 4.7823 20.7088 -0.0 0.0 -0.0 11.3822 14.1571 -22.8208 6.67677 26.4698 -60.9506 2.07269 45.7507 -0.874568 3.08288 -0.0983738 0.381433 1.85541 2.81582 -11.3519 0.0 0.0 0.0 28.5454 -20.6672 -17.8393 0.920716 -0.039007 -0.135902 31.7671 17.5593 -4.15865 25.7912 -0.0 -0.0 -0.0 0.0 -0.0 3.83776 37.629 -13.8675 -10.5114 -0.288057 -1.58518 40.8263 -10.0544 4.94871 3.04199 -0.0 -0.0 0.0 0.0 0.0 
